<?xml version="1.0" encoding="utf-8"?>
<svg width="32" height="32" version="1" xmlns="http://www.w3.org/2000/svg">
  <rect style="opacity:0.2" width="28" height="28" x="2" y="3" rx="8.4" ry="8.4"/>
  <rect style="fill:#4f4f4f" width="28" height="28" x="2" y="2" rx="8.4" ry="8.4"/>
  <path style="opacity:0.15" d="M 3.578125 5.5 C 3.2426858 5.9671531 2.9497807 6.4673367 2.7148438 7 L 29.285156 7 C 29.050219 6.4673367 28.757314 5.9671531 28.421875 5.5 L 3.578125 5.5 z M 2.046875 9.5 C 2.0156358 9.7957234 2 10.096117 2 10.400391 L 2 11 L 30 11 L 30 10.400391 C 30 10.096117 29.984364 9.7957234 29.953125 9.5 L 2.046875 9.5 z M 2 13.5 L 2 15 L 30 15 L 30 13.5 L 2 13.5 z M 2 17.5 L 2 19 L 30 19 L 30 17.5 L 2 17.5 z M 2 21.5 L 2 21.599609 C 2 22.077072 2.0413782 22.544704 2.1171875 23 L 29.882812 23 C 29.958622 22.544704 30 22.077072 30 21.599609 L 30 21.5 L 2 21.5 z M 2.9550781 25.5 C 3.2361344 26.037431 3.5747654 26.539467 3.9609375 27 L 28.039062 27 C 28.425235 26.539467 28.763866 26.037431 29.044922 25.5 L 2.9550781 25.5 z"/>
  <path style="opacity:0.2;fill:none;stroke:#000000;stroke-width:3;stroke-linejoin:round" d="M 1.474 16.222 L 5.674 16.222 L 9.174 9.222 L 11.974 22.222 L 16.874 7.222 L 20.374 25.222 L 24.574 16.222 L 29.474 16.222"/>
  <path style="fill: none; stroke-width: 3; stroke-linejoin: round; stroke: rgb(255, 92, 122);" d="M 1.938 16.273 L 6.138 16.273 L 9.638 9.273 L 12.438 22.273 L 17.338 7.273 C 17.715 8.215 20.838 25.273 20.838 25.273 L 25.038 16.273 L 29.938 16.273"/>
  <path style="fill:#ffffff;opacity:0.1" d="M 10.400391 2 C 5.7467908 2 2 5.7467908 2 10.400391 L 2 11.400391 C 2 6.7467908 5.7467908 3 10.400391 3 L 21.599609 3 C 26.253209 3 30 6.7467908 30 11.400391 L 30 10.400391 C 30 5.7467908 26.253209 2 21.599609 2 L 10.400391 2 z"/>
  <path style="opacity: 0.2; fill: rgb(255, 53, 53);" d="M 17.461 5.777 C 16.78 5.735 16.156 6.159 15.944 6.808 L 12.768 16.531 L 11.135 8.956 C 10.892 7.828 9.517 7.386 8.662 8.161 C 8.523 8.286 8.41 8.436 8.327 8.603 L 5.243 14.773 L 1.969 14.773 L 1.969 15.773 L 5.243 15.773 L 8.327 9.603 C 8.842 8.57 10.283 8.482 10.92 9.445 C 11.023 9.601 11.096 9.774 11.135 9.956 L 12.768 17.531 L 15.944 7.808 C 16.156 7.159 16.78 6.735 17.461 6.777 C 18.143 6.818 18.711 7.315 18.842 7.986 L 21.461 21.456 L 23.709 16.638 C 23.956 16.11 24.486 15.773 25.069 15.773 L 29.969 15.773 L 29.969 14.773 L 25.069 14.773 C 24.486 14.773 23.956 15.11 23.709 15.638 L 21.461 20.456 L 18.842 6.986 C 18.711 6.315 18.143 5.818 17.461 5.777 Z"/>
</svg>