<?xml version="1.0" encoding="utf-8"?>
<svg width="24" height="24" version="1.1" xmlns="http://www.w3.org/2000/svg" xmlns:xlink="http://www.w3.org/1999/xlink" xmlns:bx="https://boxy-svg.com">
  <defs>
    <linearGradient id="gradient-1" bx:pinned="true">
      <stop offset="0" style="stop-color: rgb(255, 112, 145);"/>
      <stop offset="1" style="stop-color: rgb(255, 191, 164);"/>
    </linearGradient>
    <linearGradient id="gradient-0" bx:pinned="true">
      <stop offset="0.696" style="stop-color: rgb(255, 191, 164);"/>
    </linearGradient>
    <linearGradient id="color-0" gradientUnits="userSpaceOnUse" bx:pinned="true">
      <stop style="stop-color: rgb(255, 191, 164);"/>
    </linearGradient>
    <linearGradient id="color-1" gradientUnits="userSpaceOnUse" bx:pinned="true">
      <stop style="stop-color: rgb(255, 191, 164);"/>
    </linearGradient>
    <linearGradient id="gradient-1-0" gradientUnits="userSpaceOnUse" x1="12.5" y1="8" x2="12.5" y2="16" gradientTransform="matrix(1.505249, 0, 0, 1.505249, -6.152882, -6.137291)" xlink:href="#gradient-1"/>
  </defs>
  <rect x="7.517" y="7.901" width="9.075" height="8.171" style="stroke-linejoin: round; stroke: rgb(59, 39, 39); stroke-width: 12px;"/>
  <path style="opacity: 0.2; fill-rule: evenodd;" d="M 8.783 6.658 C 8.022 6.64 7.395 7.267 7.394 8.047 L 7.394 12.677 L 7.395 17.308 C 7.394 18.377 8.525 19.049 9.43 18.514 C 9.43 18.514 9.431 18.514 9.431 18.514 L 13.341 16.197 L 17.252 13.883 C 18.157 13.349 18.157 12.009 17.254 11.473 C 17.253 11.473 17.253 11.473 17.253 11.473 L 13.341 9.16 L 9.431 6.843 C 9.313 6.774 9.186 6.724 9.053 6.693 C 8.964 6.672 8.874 6.66 8.783 6.658 Z"/>
  <path style="fill-rule: evenodd; paint-order: stroke; fill: url(#gradient-1-0);" d="M 8.783 5.905 C 8.022 5.887 7.395 6.514 7.394 7.294 L 7.394 11.924 L 7.395 16.555 C 7.394 17.626 8.525 18.296 9.43 17.761 C 9.43 17.761 9.431 17.761 9.431 17.761 L 13.341 15.445 L 17.252 13.131 C 18.157 12.596 18.157 11.256 17.254 10.72 C 17.253 10.72 17.253 10.72 17.253 10.72 L 13.341 8.407 L 9.431 6.09 C 9.313 6.021 9.186 5.971 9.053 5.94 C 8.964 5.919 8.874 5.907 8.783 5.905 Z"/>
  <path style="fill-rule: evenodd; stroke-linejoin: round; stroke-width: 33px; fill: rgb(59, 39, 39);" d="M 10.54 9.629 C 10.256 9.621 10.021 9.856 10.021 10.146 L 10.021 11.869 L 10.021 13.593 C 10.021 13.992 10.441 14.241 10.779 14.043 C 10.779 14.043 10.779 14.043 10.779 14.043 L 12.236 13.181 L 13.692 12.319 C 14.028 12.121 14.028 11.622 13.694 11.423 C 13.694 11.422 13.694 11.422 13.694 11.422 L 12.236 10.56 L 10.779 9.697 C 10.735 9.67 10.686 9.652 10.637 9.642 C 10.605 9.635 10.572 9.629 10.54 9.629 Z"/>
  <path style="opacity: 0.2; fill-rule: evenodd;" d="M 12.194 10.558 L 10.601 9.653 C 10.284 9.519 9.882 10.035 10.044 10.318 L 11.799 11.374 L 13.507 12.398 C 13.877 12.363 14.123 11.995 13.863 11.605 L 12.194 10.558 Z"/>
  <path style="opacity: 0.2; fill-rule: evenodd;" d="M 7.515 9.246 C 7.13 9.236 6.814 9.553 6.813 9.948 L 6.813 12.288 L 6.814 14.628 C 6.813 15.168 7.385 15.507 7.842 15.238 C 7.842 15.238 7.842 15.238 7.842 15.238 L 9.819 14.067 L 11.795 12.897 C 12.252 12.628 12.252 11.95 11.795 11.679 C 11.795 11.679 11.795 11.679 11.795 11.679 L 9.819 10.51 L 7.842 9.34 C 7.782 9.305 7.718 9.279 7.651 9.263 C 7.606 9.253 7.561 9.247 7.515 9.246 Z"/>
  <path style="fill-rule: evenodd; stroke-linejoin: round; stroke-width: 33px; fill: rgb(255, 255, 255);" d="M 7.347 8.873 C 6.967 8.863 6.652 9.178 6.651 9.568 L 6.651 11.888 L 6.652 14.21 C 6.651 14.747 7.219 15.081 7.673 14.813 C 7.673 14.813 7.673 14.813 7.673 14.813 L 9.63 13.654 L 11.591 12.494 C 12.043 12.226 12.043 11.555 11.593 11.286 C 11.593 11.286 11.593 11.286 11.593 11.286 L 9.63 10.126 L 7.673 8.966 C 7.613 8.932 7.548 8.905 7.482 8.89 C 7.438 8.879 7.394 8.873 7.347 8.873 Z"/>
  <path style="opacity: 0.1; fill: rgba(255, 255, 255, 0.47);" d="M 7.797 1.835 C 4.257 1.835 1.406 4.684 1.406 8.225 L 1.406 8.985 C 1.406 5.445 4.257 2.595 7.797 2.595 L 16.316 2.595 C 19.858 2.595 22.708 5.445 22.708 8.985 L 22.708 8.225 C 22.708 4.684 19.858 1.835 16.316 1.835 L 7.797 1.835 Z"/>
  <path style="opacity: 0.1;" d="M 7.825 22.852 C 4.285 22.852 1.434 20.003 1.434 16.462 L 1.434 15.702 C 1.434 19.242 4.285 22.092 7.825 22.092 L 16.344 22.092 C 19.886 22.092 22.736 19.242 22.736 15.702 L 22.736 16.462 C 22.736 20.003 19.886 22.852 16.344 22.852 L 7.825 22.852 Z"/>
</svg>